<svg xmlns="http://www.w3.org/2000/svg" xmlns:xlink="http://www.w3.org/1999/xlink" viewBox="0 0 1440 584.28"><defs><style>.cls-1{fill:url(#linear-gradient);}.cls-2{fill:url(#linear-gradient-2);}.cls-3{fill:url(#linear-gradient-3);}.cls-4{fill:url(#linear-gradient-4);}.cls-5{fill:url(#linear-gradient-5);}.cls-6{fill:#fff;}</style><linearGradient id="linear-gradient" x1="-7252.69" y1="-4151.43" x2="-7400.06" y2="-4025.96" gradientTransform="translate(-435.44 -7929.93) rotate(-130.69)" gradientUnits="userSpaceOnUse"><stop offset="0" stop-color="#4d73ff"/><stop offset="0.47" stop-color="#4b72fe"/><stop offset="0.64" stop-color="#4471fc"/><stop offset="0.76" stop-color="#396df8"/><stop offset="0.86" stop-color="#2868f3"/><stop offset="0.95" stop-color="#1262ec"/><stop offset="1" stop-color="#005de6"/></linearGradient><linearGradient id="linear-gradient-2" x1="-7295.56" y1="-4030.59" x2="-7361.29" y2="-3974.62" gradientTransform="translate(-435.44 -7929.93) rotate(-130.69)" gradientUnits="userSpaceOnUse"><stop offset="0" stop-color="#6687ff"/><stop offset="0.07" stop-color="#6687ff"/><stop offset="0.52" stop-color="#6687ff"/><stop offset="0.93" stop-color="#6687ff"/><stop offset="1" stop-color="#6687ff"/></linearGradient><linearGradient id="linear-gradient-3" x1="-7361.16" y1="-3874.11" x2="-7100.35" y2="-3875.98" gradientTransform="translate(-435.44 -7929.93) rotate(-130.69)" gradientUnits="userSpaceOnUse"><stop offset="0" stop-color="#005ee6"/><stop offset="0.17" stop-color="#276ef0"/><stop offset="0.35" stop-color="#497bf8"/><stop offset="0.5" stop-color="#5e84fd"/><stop offset="0.6" stop-color="#6687ff"/><stop offset="0.69" stop-color="#6386fe"/><stop offset="0.76" stop-color="#5881fc"/><stop offset="0.84" stop-color="#467af7"/><stop offset="0.91" stop-color="#2d6ff1"/><stop offset="0.97" stop-color="#0d62e9"/><stop offset="1" stop-color="#005de6"/></linearGradient><linearGradient id="linear-gradient-4" x1="-7230.34" y1="-3953.99" x2="-7051.75" y2="-4106.04" gradientTransform="translate(-435.44 -7929.93) rotate(-130.69)" gradientUnits="userSpaceOnUse"><stop offset="0" stop-color="#094fed"/><stop offset="0.24" stop-color="#0a4eea"/><stop offset="0.45" stop-color="#0d4cdf"/><stop offset="0.65" stop-color="#1147cd"/><stop offset="0.84" stop-color="#1841b4"/><stop offset="1" stop-color="#1f3b99"/></linearGradient><linearGradient id="linear-gradient-5" x1="-7043.16" y1="-4143.03" x2="-7160.49" y2="-4043.13" gradientTransform="translate(-435.44 -7929.93) rotate(-130.69)" gradientUnits="userSpaceOnUse"><stop offset="0" stop-color="#365ce6"/><stop offset="0.06" stop-color="#325ae0"/><stop offset="0.47" stop-color="#1749ba"/><stop offset="0.79" stop-color="#063fa2"/><stop offset="1" stop-color="#003b99"/></linearGradient></defs><title>altis-logo-white-2</title><g id="Layer_2" data-name="Layer 2"><g id="Layer_1-2" data-name="Layer 1"><path class="cls-1" d="M1160,181l4.88.47c35.24,3.39,70.54,6.37,105.63,11.12,6.63,26.55,10.89,49.25,16.87,61.54,16.23,33.44,47,21.61,55.84,7.81l-7,19c-8,21.63-16.1,43.23-24,64.89-9.18,25.2-26.06,55.51-57.85,50.51-27.4-4.3-38.14-34.52-45-57.67-11.64-39.37-18.85-79.21-32.38-118A313.14,313.14,0,0,0,1160,181Z"/><path class="cls-2" d="M1270.51,192.55c74.13,10,79.24,43.1,79.33,51.47q-3.33,8.94-6.62,17.88c-8.84,13.8-39.61,25.63-55.84-7.81C1281.4,241.8,1277.14,219.1,1270.51,192.55Z"/><path class="cls-3" d="M1180.8,45.37,1440,0l-.26.71-.51,1.41-.23.63-.55,1.5-.29.79-8.78,23.7L1403,100q-16.89,45.72-33.8,91.48-9.71,26.25-19.4,52.51c-.09-8.37-5.2-41.43-79.33-51.47C1258,142.55,1237.17,78.89,1180.8,45.37Z"/><path class="cls-4" d="M1052.63,67.8,1180.8,45.37c56.37,33.52,77.23,97.18,89.71,147.18-35.09-4.75-70.39-7.73-105.63-11.12L1160,181a319.71,319.71,0,0,0-53.84-75.85c-3.78-3.91-7.7-7.67-11.79-11.24C1094.37,93.87,1070.75,73.29,1052.63,67.8Z"/><path class="cls-5" d="M1052.68,67.81c18.12,5.49,41.69,26.06,41.69,26.06,4.09,3.57,8,7.33,11.79,11.24A319.71,319.71,0,0,1,1160,181c-30.52-2.82-62.08-5-91.86-12.16-24-5.81-44.66-20.87-51.05-45.6-5.12-19.82,2.41-39,20.23-49.38a58.4,58.4,0,0,1,15.31-6"/><path class="cls-6" d="M118.69,291.76q-42.18,0-71.72,21.66t-36.28,57.1L69.75,384q10.68-32.62,48.94-32.63,49.5,0,49.5,41.63v12.37H120.94q-54,0-87.47,25.32T0,498.21q0,40,23.91,63t62.16,23.06q54.56,0,87.19-40.5l7.31,36H238V410.46Q238,291.78,118.69,291.76Zm49.5,174.39q0,25.88-20.25,42.19a69.31,69.31,0,0,1-45.56,16.31q-13.5,0-21.38-7.87a26.72,26.72,0,0,1-7.87-19.69q0-36.57,48.38-36.57h46.68Z"/><rect class="cls-6" x="307.14" y="181.51" width="69.75" height="398.27"/><path class="cls-6" d="M610.34,517.9a55.54,55.54,0,0,1-27,6.75q-19.12,0-28.12-10.69t-9-35.44V355.89H621V296.26H546.21V181.51l-69.76,43.88v70.87H432.58v59.63h43.87V479.65q0,51.2,27.29,77.91t76.78,26.72a108.71,108.71,0,0,0,46.13-10.13Z"/><path class="cls-6" d="M716.09,259.7q19.11,0,32.06-12.94t12.94-32.06q0-19.12-12.94-32.06T716.09,169.7Q697,169.7,684,182.64T671.09,214.7q0,19.13,12.94,32.06T716.09,259.7Z"/><rect class="cls-6" x="681.21" y="296.26" width="69.75" height="283.52"/><path class="cls-6" d="M1004.1,443.65Q999,436.9,983.85,429q-16.32-9-20.25-10.69l-24.19-8.44-20.25-7.3q-27-10.14-27-27.57,0-11.25,7.31-17.44T918,351.39q27.56,0,47.25,24.76l41.63-38.26q-13.5-20.81-37.41-33.47A108.47,108.47,0,0,0,918,291.76q-40.5,0-65.25,24.2-25.32,24.18-25.31,58.5,0,29.25,14.34,46.69t43,29.81q4.5,1.69,19.69,7.32t20.25,7.87a77.07,77.07,0,0,1,15.75,6.75q15.19,7.32,15.19,21.38,0,30.38-34.88,30.37Q880.9,524.65,864,478l-55.69,29.82q12.93,30.94,42.19,53.44,29.81,23.07,70.31,23.06,45,0,72.57-27.56,28.13-28.12,28.13-66.94A67.4,67.4,0,0,0,1004.1,443.65Z"/></g></g></svg>